<svg width="24" height="24" viewBox="0 0 24 24" fill="none" xmlns="http://www.w3.org/2000/svg">
<path d="M12 21C13.9629 20.9996 15.8719 20.3574 17.436 19.1713C19.0001 17.9853 20.1335 16.3204 20.6636 14.4304C21.1937 12.5404 21.0913 10.5289 20.3721 8.70249C19.6529 6.87606 18.3563 5.33484 16.6799 4.31369C15.0035 3.29254 13.0392 2.84747 11.0864 3.0463C9.13354 3.24513 7.29925 4.07695 5.86304 5.41501C4.42683 6.75306 3.46745 8.52398 3.1311 10.4579C2.79476 12.3918 3.09989 14.3826 4 16.127L3 21L7.873 20C9.109 20.639 10.513 21 12 21Z" stroke="#D9D9D9" stroke-width="1.5" stroke-linecap="round" stroke-linejoin="round"/>
<path d="M7.5 12H7.51V12.01H7.5V12ZM12 12H12.01V12.01H12V12ZM16.5 12H16.51V12.01H16.5V12Z" stroke="#D9D9D9" stroke-width="2.25" stroke-linejoin="round"/>
</svg>
